<svg width="713" height="154" viewBox="0 0 713 154" fill="none" xmlns="http://www.w3.org/2000/svg">
<g clipPath="url(#clip0_1834_24858)">
<path fillRule="evenodd" clip-rule="evenodd" d="M0.923828 49.1423C0.923828 45.2455 2.37695 41.3487 5.3027 38.3892C11.1347 32.4897 20.6824 32.4897 26.5241 38.3892L58.3172 70.54C64.1492 76.4394 64.1492 86.0975 58.3172 92.0068C52.4852 97.9062 42.9376 97.9062 37.0958 92.0068L30.942 85.7719V138.807C30.942 147.153 24.1933 153.98 15.9427 153.98C7.69206 153.98 0.943333 147.153 0.943333 138.807V49.1324L0.923828 49.1423Z" fill="#FABF00"/>
<path fillRule="evenodd" clip-rule="evenodd" d="M175.2 0.960449C166.286 0.960449 159.655 7.89572 159.655 16.9126V138.028C159.655 147.045 166.286 153.98 175.2 153.98C183.89 153.98 190.521 147.272 190.521 138.028V16.9126C190.521 7.65895 184.124 0.960449 175.2 0.960449ZM260.7 129.939L228.234 88.7809L257.033 59.1851C260.466 55.7126 262.066 52.0131 262.066 48.0867C262.066 40.2241 255.892 34.2162 247.895 34.2162C244.004 34.2162 240.123 35.8341 237.148 39.0699L201.025 77.2287C197.143 81.6187 195.534 84.8644 195.534 88.7907C195.534 92.2633 196.909 95.4991 200.332 100.126L238.972 148.219C241.946 152.155 245.603 154 250.402 154C258.174 154 264.348 147.755 264.348 139.666C264.348 136.193 263.207 133.194 260.691 129.958L260.7 129.939ZM133.899 138.817C133.899 147.163 127.15 153.99 118.899 153.99L118.89 153.98C110.649 153.98 103.89 147.153 103.89 138.807V85.7719L97.7364 92.0068C91.8947 97.9062 82.347 97.9062 76.515 92.0068C70.683 86.0975 70.683 76.4394 76.515 70.54L108.298 38.3892C114.14 32.4897 123.688 32.4897 129.52 38.3892C132.446 41.3487 133.908 45.2455 133.899 49.1423V138.817ZM623.034 48.3136C632.641 39.2968 647.494 34.2063 663.956 34.2063H663.975C695.066 34.2063 712.894 52.0131 712.894 83.2267V138.265C712.894 147.292 706.487 153.763 698.031 153.763C690.483 153.763 684.543 148.673 683.168 141.737C674.937 149.6 663.507 153.99 650.02 153.99C626.701 153.99 610.932 140.12 610.932 119.768C610.932 99.1887 627.16 86.4724 653.677 86.4724H682.027V81.3819C682.027 68.6656 674.479 61.2667 660.767 61.2667C652.76 61.2667 645.68 64.0388 639.048 69.8198C635.391 72.592 632.875 73.5193 629.9 73.5193C622.352 73.5193 616.637 67.7383 616.637 60.803C616.637 56.413 618.919 52.24 623.034 48.3136ZM642.013 118.603C642.013 126.239 648.186 131.093 658.241 131.093C671.729 131.093 682.018 121.385 682.018 108.432V107.041H657.783C647.504 107.041 642.013 110.978 642.013 118.603ZM290.416 48.3136C300.022 39.2968 314.875 34.2063 331.338 34.2063H331.357C362.448 34.2063 380.276 52.0131 380.276 83.2267V138.265C380.276 147.292 373.868 153.763 365.413 153.763C357.864 153.763 351.925 148.673 350.55 141.737C342.319 149.6 330.889 153.99 317.401 153.99C294.083 153.99 278.313 140.12 278.313 119.768C278.313 99.1887 294.541 86.4724 321.058 86.4724H349.409V81.3819C349.409 68.6656 341.861 61.2667 328.149 61.2667C320.142 61.2667 313.061 64.0388 306.43 69.8198C302.773 72.592 300.256 73.5193 297.282 73.5193C289.733 73.5193 284.019 67.7383 284.019 60.803C284.019 56.413 286.301 52.24 290.416 48.3136ZM309.394 118.603C309.394 126.239 315.568 131.093 325.623 131.093C339.11 131.093 349.399 121.385 349.399 108.432V107.041H325.164C314.885 107.041 309.394 110.978 309.394 118.603ZM446.553 153.99C471.247 153.99 490.674 141.037 490.674 117.449C490.674 99.6424 479.244 90.8525 458.9 82.5262L447.929 77.8994C439.697 74.6636 436.04 72.3453 436.04 67.7284C436.04 62.1742 440.839 59.6389 448.153 59.6389C455.701 59.6389 462.782 62.411 468.731 66.5741C471.471 68.4288 474.221 69.8099 476.962 69.8099C483.818 69.8099 489.533 64.0289 489.533 56.8569C489.533 52.6937 487.699 48.9943 484.042 46.2221C474.894 38.3595 461.865 33.9695 448.377 33.9695C424.376 33.9695 406.773 46.4589 406.773 68.4288C406.773 86.4625 418.427 95.4892 437.63 103.352L449.743 108.442L449.852 108.49C456.65 111.473 461.407 113.561 461.407 118.85C461.407 125.322 454.775 128.331 447.002 128.331C437.172 128.331 428.94 123.941 422.309 118.159C419.11 115.614 416.37 114.687 413.395 114.687C406.305 114.687 400.59 120.695 400.59 127.867C400.59 131.566 401.965 135.039 404.93 137.584C414.985 147.528 429.623 154 446.534 154L446.553 153.99ZM594.684 117.449C594.684 141.037 575.257 153.99 550.564 153.99L550.545 154C533.634 154 518.995 147.528 508.94 137.584C505.976 135.039 504.601 131.566 504.601 127.867C504.601 120.695 510.316 114.687 517.406 114.687C520.38 114.687 523.121 115.614 526.319 118.159C532.951 123.941 541.182 128.331 551.013 128.331C558.785 128.331 565.417 125.322 565.417 118.85C565.417 113.561 560.66 111.473 553.862 108.49L553.753 108.442L541.641 103.352C522.438 95.4892 510.784 86.4625 510.784 68.4288C510.784 46.4589 528.387 33.9695 552.388 33.9695C565.875 33.9695 578.905 38.3595 588.053 46.2221C591.71 48.9943 593.543 52.6937 593.543 56.8569C593.543 64.0289 587.828 69.8099 580.972 69.8099C578.232 69.8099 575.482 68.4288 572.741 66.5741C566.792 62.411 559.702 59.6389 552.163 59.6389C544.849 59.6389 540.051 62.1742 540.051 67.7284C540.051 72.3453 543.708 74.6636 551.939 77.8994L562.911 82.5262C583.254 90.8525 594.684 99.6424 594.684 117.449Z" fill="white"/>
<path fillRule="evenodd" clip-rule="evenodd" d="M175.2 0.960449C166.286 0.960449 159.655 7.89572 159.655 16.9126V138.028C159.655 147.045 166.286 153.98 175.2 153.98C183.89 153.98 190.521 147.272 190.521 138.028V16.9126C190.521 7.65895 184.124 0.960449 175.2 0.960449ZM260.7 129.939L228.234 88.7809L257.033 59.1851C260.466 55.7126 262.066 52.0131 262.066 48.0867C262.066 40.2241 255.892 34.2162 247.895 34.2162C244.004 34.2162 240.123 35.8341 237.148 39.0699L201.025 77.2287C197.143 81.6187 195.534 84.8644 195.534 88.7907C195.534 92.2633 196.909 95.4991 200.332 100.126L238.972 148.219C241.946 152.155 245.603 154 250.402 154C258.174 154 264.348 147.755 264.348 139.666C264.348 136.193 263.207 133.194 260.691 129.958L260.7 129.939ZM133.899 138.817C133.899 147.163 127.15 153.99 118.899 153.99L118.89 153.98C110.649 153.98 103.89 147.153 103.89 138.807V85.7719L97.7364 92.0068C91.8947 97.9062 82.347 97.9062 76.515 92.0068C70.683 86.0975 70.683 76.4394 76.515 70.54L108.298 38.3892C114.14 32.4897 123.688 32.4897 129.52 38.3892C132.446 41.3487 133.908 45.2455 133.899 49.1423V138.817ZM623.034 48.3136C632.641 39.2968 647.494 34.2063 663.956 34.2063H663.975C695.066 34.2063 712.894 52.0131 712.894 83.2267V138.265C712.894 147.292 706.487 153.763 698.031 153.763C690.483 153.763 684.543 148.673 683.168 141.737C674.937 149.6 663.507 153.99 650.02 153.99C626.701 153.99 610.932 140.12 610.932 119.768C610.932 99.1887 627.16 86.4724 653.677 86.4724H682.027V81.3819C682.027 68.6656 674.479 61.2667 660.767 61.2667C652.76 61.2667 645.68 64.0388 639.048 69.8198C635.391 72.592 632.875 73.5193 629.9 73.5193C622.352 73.5193 616.637 67.7383 616.637 60.803C616.637 56.413 618.919 52.24 623.034 48.3136ZM642.013 118.603C642.013 126.239 648.186 131.093 658.241 131.093C671.729 131.093 682.018 121.385 682.018 108.432V107.041H657.783C647.504 107.041 642.013 110.978 642.013 118.603ZM290.416 48.3136C300.022 39.2968 314.875 34.2063 331.338 34.2063H331.357C362.448 34.2063 380.276 52.0131 380.276 83.2267V138.265C380.276 147.292 373.868 153.763 365.413 153.763C357.864 153.763 351.925 148.673 350.55 141.737C342.319 149.6 330.889 153.99 317.401 153.99C294.083 153.99 278.313 140.12 278.313 119.768C278.313 99.1887 294.541 86.4724 321.058 86.4724H349.409V81.3819C349.409 68.6656 341.861 61.2667 328.149 61.2667C320.142 61.2667 313.061 64.0388 306.43 69.8198C302.773 72.592 300.256 73.5193 297.282 73.5193C289.733 73.5193 284.019 67.7383 284.019 60.803C284.019 56.413 286.301 52.24 290.416 48.3136ZM309.394 118.603C309.394 126.239 315.568 131.093 325.623 131.093C339.11 131.093 349.399 121.385 349.399 108.432V107.041H325.164C314.885 107.041 309.394 110.978 309.394 118.603ZM446.553 153.99C471.247 153.99 490.674 141.037 490.674 117.449C490.674 99.6424 479.244 90.8525 458.9 82.5262L447.929 77.8994C439.697 74.6636 436.04 72.3453 436.04 67.7284C436.04 62.1742 440.839 59.6389 448.153 59.6389C455.701 59.6389 462.782 62.411 468.731 66.5741C471.471 68.4288 474.221 69.8099 476.962 69.8099C483.818 69.8099 489.533 64.0289 489.533 56.8569C489.533 52.6937 487.699 48.9943 484.042 46.2221C474.894 38.3595 461.865 33.9695 448.377 33.9695C424.376 33.9695 406.773 46.4589 406.773 68.4288C406.773 86.4625 418.427 95.4892 437.63 103.352L449.743 108.442L449.852 108.49C456.65 111.473 461.407 113.561 461.407 118.85C461.407 125.322 454.775 128.331 447.002 128.331C437.172 128.331 428.94 123.941 422.309 118.159C419.11 115.614 416.37 114.687 413.395 114.687C406.305 114.687 400.59 120.695 400.59 127.867C400.59 131.566 401.965 135.039 404.93 137.584C414.985 147.528 429.623 154 446.534 154L446.553 153.99ZM594.684 117.449C594.684 141.037 575.257 153.99 550.564 153.99L550.545 154C533.634 154 518.995 147.528 508.94 137.584C505.976 135.039 504.601 131.566 504.601 127.867C504.601 120.695 510.316 114.687 517.406 114.687C520.38 114.687 523.121 115.614 526.319 118.159C532.951 123.941 541.182 128.331 551.013 128.331C558.785 128.331 565.417 125.322 565.417 118.85C565.417 113.561 560.66 111.473 553.862 108.49L553.753 108.442L541.641 103.352C522.438 95.4892 510.784 86.4625 510.784 68.4288C510.784 46.4589 528.387 33.9695 552.388 33.9695C565.875 33.9695 578.905 38.3595 588.053 46.2221C591.71 48.9943 593.543 52.6937 593.543 56.8569C593.543 64.0289 587.828 69.8099 580.972 69.8099C578.232 69.8099 575.482 68.4288 572.741 66.5741C566.792 62.411 559.702 59.6389 552.163 59.6389C544.849 59.6389 540.051 62.1742 540.051 67.7284C540.051 72.3453 543.708 74.6636 551.939 77.8994L562.911 82.5262C583.254 90.8525 594.684 99.6424 594.684 117.449Z" fill="url(#paint0_linear_1834_24858)"/>
</g>
<defs>
<linearGradient id="paint0_linear_1834_24858" x1="549.643" y1="148.621" x2="549.643" y2="35.2088" gradientUnits="userSpaceOnUse">
<stop stop-color="#0178A1"/>
<stop offset="1" stop-color="#13A9CE"/>
</linearGradient>
<clipPath id="clip0_1834_24858">
<rect width="711.964" height="153.03" fill="white" transform="translate(0.916992 0.960449)"/>
</clipPath>
</defs>
</svg>
